<svg width="68" height="24" viewBox="0 0 68 24" fill="none" xmlns="http://www.w3.org/2000/svg">
<path d="M11.1796 4.844L10.3216 5.026C9.82763 3.362 8.91763 1.438 6.70763 1.438C4.96563 1.438 3.92563 2.686 3.92563 4.168C3.92563 5.806 5.04363 6.69 7.30563 7.808C9.82763 9.03 11.9856 10.408 11.9856 13.164C11.9856 16.102 9.48963 18.39 5.71963 18.39C4.70563 18.39 3.76963 18.234 3.06763 18C2.33963 17.792 1.87163 17.584 1.58563 17.454C1.35163 16.83 0.987625 14.542 0.831625 13.086L1.68963 12.826C2.15763 14.49 3.58762 17.376 6.23963 17.376C8.03363 17.376 9.12563 16.206 9.12563 14.412C9.12563 12.696 7.85163 11.734 5.82363 10.694C3.50963 9.498 1.29963 8.12 1.29963 5.416C1.29963 2.634 3.50963 0.423998 7.12363 0.423998C8.65763 0.423998 10.0096 0.839999 10.7116 1.074C10.8156 2.062 10.9716 3.18 11.1796 4.844ZM26.7585 16.596V17.376C26.0825 17.48 25.3285 17.61 24.5485 17.792C23.7425 17.948 22.9625 18.156 22.3125 18.312L22.0785 18.13V16.414C21.5585 16.83 21.1425 17.194 20.4665 17.584C19.7125 18.052 19.0625 18.312 18.2825 18.312C16.2285 18.312 14.8505 17.038 14.8505 14.464V9.186C14.8505 7.86 14.6685 7.73 13.9925 7.548L13.3165 7.392V6.69C13.9405 6.664 14.6685 6.586 15.5265 6.482C16.3325 6.404 17.1905 6.3 17.7885 6.196C17.7365 7.184 17.7105 8.484 17.7105 10.122V13.84C17.7105 15.816 18.7505 16.44 19.7645 16.44C20.5965 16.44 21.3505 16.18 22.0785 15.478V9.186C22.0785 7.86 21.8965 7.704 21.1165 7.548L20.2065 7.392V6.69C20.9865 6.664 21.9225 6.586 22.8065 6.482C23.6385 6.404 24.4185 6.3 24.9385 6.196V14.854C24.9385 16.232 25.1205 16.466 26.1345 16.544L26.7585 16.596ZM32.5199 8.9H32.5719C33.5079 7.34 34.5479 6.066 35.6659 6.066C36.6799 6.066 37.3819 6.82 37.3819 7.574C37.3819 8.354 36.8879 9.004 36.2379 9.264C35.8999 9.394 35.6659 9.316 35.4839 9.16C35.0679 8.822 34.7299 8.64 34.2879 8.64C33.7159 8.64 33.0139 9.186 32.5199 10.408V15.218C32.5199 16.908 32.6499 17.038 34.7299 17.22V18H27.8919V17.22C29.4259 17.038 29.6599 16.908 29.6599 15.218V9.602C29.6599 8.094 29.4779 7.99 28.1519 7.73V7.054C29.5819 6.872 31.0119 6.534 32.5199 6.014V8.9ZM51.1774 6.378V7.158C49.8514 7.392 49.5914 7.626 48.9154 9.082C48.2654 10.46 47.3814 12.67 45.6914 16.648C43.8974 20.886 43.3514 22.498 42.9094 23.954C42.7014 24.526 42.3634 24.656 41.9734 24.656C41.2454 24.656 40.2574 23.928 40.2574 23.122C40.2574 22.706 40.4394 22.472 40.9334 22.108C41.9214 21.588 42.4934 21.016 43.0654 20.002C43.4294 19.352 43.6114 18.962 43.7154 18.624C43.8454 18.208 43.7934 17.844 43.6374 17.402C42.3894 13.944 41.0374 10.408 40.4134 8.952C39.8934 7.704 39.6074 7.366 38.2554 7.158V6.378H44.3394V7.158C43.1954 7.392 43.0134 7.574 43.3254 8.484L45.5094 14.646C46.1594 13.06 47.1994 10.2 47.6934 8.64C47.9794 7.73 47.7714 7.392 46.3934 7.158V6.378H51.1774ZM62.7118 16.856L60.0598 18.312C59.4618 18.312 58.9158 18.078 58.5778 17.792C58.2138 17.454 58.0318 17.064 57.9278 16.7C56.8878 17.428 55.6398 18.312 54.9898 18.312C52.8838 18.312 51.5838 16.622 51.5838 14.984C51.5838 13.658 52.2338 12.93 53.6638 12.436C55.2758 11.89 57.2258 11.188 57.8238 10.694V10.096C57.8238 8.302 57.0958 7.314 55.9518 7.314C55.5358 7.314 55.2238 7.47 54.9378 7.782C54.6258 8.146 54.3918 8.77 54.1578 9.576C54.0018 10.2 53.6638 10.382 53.1698 10.382C52.5718 10.382 51.7658 9.784 51.7658 9.108C51.7658 8.692 52.0778 8.38 52.6238 7.938C53.5338 7.314 55.3798 6.352 56.8878 6.066C57.8238 6.066 58.6298 6.274 59.2798 6.82C60.3718 7.626 60.6318 8.77 60.6318 10.226V14.75C60.6318 15.972 61.0478 16.336 61.4898 16.336C61.8018 16.336 62.1658 16.232 62.4518 16.076L62.7118 16.856ZM57.8238 15.842V11.656C57.3298 11.942 56.5498 12.332 56.0038 12.618C55.0938 13.034 54.5738 13.528 54.5738 14.464C54.5738 15.92 55.6138 16.492 56.2898 16.492C56.7838 16.492 57.3818 16.232 57.8238 15.842ZM66.0092 18.312H65.9832C64.9952 18.312 64.2672 17.584 64.2672 16.492C64.2672 15.478 64.9952 14.698 66.0092 14.698C67.0232 14.698 67.7772 15.478 67.7772 16.492C67.7772 17.584 67.0232 18.312 66.0092 18.312Z" fill="white"/>
</svg>
